<?xml version="1.0" encoding="UTF-8" standalone="no"?>
<!-- Created with Inkscape (http://www.inkscape.org/) -->

<svg
   width="644pt"
   height="304pt"
   viewBox="0 0 227.18899 107.24449"
   version="1.1"
   id="svg11388"
   inkscape:version="1.1 (c68e22c387, 2021-05-23)"
   sodipodi:docname="background.svg"
   xmlns:inkscape="http://www.inkscape.org/namespaces/inkscape"
   xmlns:sodipodi="http://sodipodi.sourceforge.net/DTD/sodipodi-0.dtd"
   xmlns="http://www.w3.org/2000/svg"
   xmlns:svg="http://www.w3.org/2000/svg">
  <sodipodi:namedview
     id="namedview11390"
     pagecolor="#ffffff"
     bordercolor="#666666"
     borderopacity="1.0"
     inkscape:pageshadow="2"
     inkscape:pageopacity="0.0"
     inkscape:pagecheckerboard="0"
     inkscape:document-units="mm"
     showgrid="false"
     units="pt"
     inkscape:zoom="0.74118967"
     inkscape:cx="498.52286"
     inkscape:cy="282.65369"
     inkscape:window-width="1669"
     inkscape:window-height="813"
     inkscape:window-x="129"
     inkscape:window-y="398"
     inkscape:window-maximized="0"
     inkscape:current-layer="layer1"
     width="600pt"
     showguides="true"
     inkscape:guide-bbox="true"
     fit-margin-top="0"
     fit-margin-left="0"
     fit-margin-right="0"
     fit-margin-bottom="0"
     height="281pt" />
  <defs
     id="defs11385" />
  <g
     inkscape:label="Layer 1"
     inkscape:groupmode="layer"
     id="layer1"
     transform="translate(11.43259,34.392912)">
    <rect
       style="fill:#9681a0;fill-opacity:1;stroke:#fff3f3;stroke-width:0.285195"
       id="rect11672"
       width="228.18695"
       height="107.47739"
       x="-11.550784"
       y="-73.32074"
       transform="scale(1,-1)" />
    <path
       style="opacity:0.182692;fill:#6adbee;fill-opacity:1;stroke:#000000;stroke-width:0.200153px;stroke-linecap:butt;stroke-linejoin:miter;stroke-opacity:1"
       d="m -11.820833,54.417688 c 0,0 226.836723,-6.751093 182.819593,-88.574344 -44.01713,-81.823264 53.7387,-1.350218 53.7387,-1.350218 L 227.43788,85.202678 99.707223,86.552884 -22.892626,83.85245 Z"
       id="path18304" />
    <path
       sodipodi:type="star"
       style="opacity:1;fill:#ffffff;fill-opacity:1;stroke:#ffffff;stroke-width:7.04882;stroke-miterlimit:4;stroke-dasharray:none;stroke-opacity:1"
       id="path17046-16"
       inkscape:flatsided="false"
       sodipodi:sides="5"
       sodipodi:cx="105.23622"
       sodipodi:cy="199.67899"
       sodipodi:r1="21.332445"
       sodipodi:r2="10.666223"
       sodipodi:arg1="0.32175055"
       sodipodi:arg2="0.95006909"
       inkscape:rounded="0"
       inkscape:randomized="0"
       transform="matrix(0.05655375,0,0,0.04703491,100.64573,-21.668478)"
       inkscape:transform-center-x="-9.3112176"
       inkscape:transform-center-y="-7.4344319"
       d="m 125.47396,206.4249 -14.03398,1.93059 -6.3657,12.65533 -6.172832,-12.75052 -14.003045,-2.14343 10.218951,-9.81084 -2.288657,-13.98004 12.488493,6.68708 12.58858,-6.49671 -2.50064,13.94368 z" />
    <path
       sodipodi:type="star"
       style="opacity:1;fill:#ffffff;fill-opacity:1;stroke:#ffffff;stroke-width:7.04882;stroke-miterlimit:4;stroke-dasharray:none;stroke-opacity:1"
       id="path17046-6"
       inkscape:flatsided="false"
       sodipodi:sides="5"
       sodipodi:cx="105.23622"
       sodipodi:cy="199.67899"
       sodipodi:r1="21.332445"
       sodipodi:r2="10.666223"
       sodipodi:arg1="0.32175055"
       sodipodi:arg2="0.95006909"
       inkscape:rounded="0"
       inkscape:randomized="0"
       transform="matrix(0.0983803,0,0,0.10460835,34.54194,-11.043371)"
       inkscape:transform-center-x="0.0049229551"
       inkscape:transform-center-y="0.20811021"
       d="m 125.47396,206.4249 -14.03398,1.93059 -6.3657,12.65533 -6.172832,-12.75052 -14.003045,-2.14343 10.218951,-9.81084 -2.288657,-13.98004 12.488493,6.68708 12.58858,-6.49671 -2.50064,13.94368 z" />
    <path
       sodipodi:type="star"
       style="opacity:1;fill:#ffffff;fill-opacity:1;stroke:#ffffff;stroke-width:7.04882;stroke-miterlimit:4;stroke-dasharray:none;stroke-opacity:1"
       id="path17046-5"
       inkscape:flatsided="false"
       sodipodi:sides="5"
       sodipodi:cx="105.23622"
       sodipodi:cy="199.67899"
       sodipodi:r1="21.332445"
       sodipodi:r2="10.666223"
       sodipodi:arg1="0.32175055"
       sodipodi:arg2="0.95006909"
       inkscape:rounded="0"
       inkscape:randomized="0"
       transform="matrix(0.0983803,0,0,0.10460835,46.423864,2.9989028)"
       inkscape:transform-center-x="0.004923208"
       inkscape:transform-center-y="0.20810994"
       d="m 125.47396,206.4249 -14.03398,1.93059 -6.3657,12.65533 -6.172832,-12.75052 -14.003045,-2.14343 10.218951,-9.81084 -2.288657,-13.98004 12.488493,6.68708 12.58858,-6.49671 -2.50064,13.94368 z" />
    <path
       sodipodi:type="star"
       style="opacity:1;fill:#ffffff;fill-opacity:1;stroke:#ffffff;stroke-width:7.04882;stroke-miterlimit:4;stroke-dasharray:none;stroke-opacity:1"
       id="path17046-84"
       inkscape:flatsided="false"
       sodipodi:sides="5"
       sodipodi:cx="105.23622"
       sodipodi:cy="199.67899"
       sodipodi:r1="21.332445"
       sodipodi:r2="10.666223"
       sodipodi:arg1="0.32175055"
       sodipodi:arg2="0.95006909"
       inkscape:rounded="0"
       inkscape:randomized="0"
       transform="matrix(0.26874833,0,0,0.24685989,36.056559,-52.396293)"
       inkscape:transform-center-x="0.013446867"
       inkscape:transform-center-y="0.49110647"
       d="m 125.47396,206.4249 -14.03398,1.93059 -6.3657,12.65533 -6.172832,-12.75052 -14.003045,-2.14343 10.218951,-9.81084 -2.288657,-13.98004 12.488493,6.68708 12.58858,-6.49671 -2.50064,13.94368 z" />
    <path
       sodipodi:type="star"
       style="opacity:1;fill:#ffffff;fill-opacity:1;stroke:#ffffff;stroke-width:7.04882;stroke-miterlimit:4;stroke-dasharray:none;stroke-opacity:1"
       id="path17046-1"
       inkscape:flatsided="false"
       sodipodi:sides="5"
       sodipodi:cx="105.23622"
       sodipodi:cy="199.67899"
       sodipodi:r1="21.332445"
       sodipodi:r2="10.666223"
       sodipodi:arg1="0.32175055"
       sodipodi:arg2="0.95006909"
       inkscape:rounded="0"
       inkscape:randomized="0"
       transform="matrix(0.0983803,0,0,0.10460835,75.588584,-21.575076)"
       inkscape:transform-center-x="0.0049232109"
       inkscape:transform-center-y="0.20811064"
       d="m 125.47396,206.4249 -14.03398,1.93059 -6.3657,12.65533 -6.172832,-12.75052 -14.003045,-2.14343 10.218951,-9.81084 -2.288657,-13.98004 12.488493,6.68708 12.58858,-6.49671 -2.50064,13.94368 z" />
    <path
       sodipodi:type="star"
       style="opacity:1;fill:#ffffff;fill-opacity:1;stroke:#ffffff;stroke-width:7.04882;stroke-miterlimit:4;stroke-dasharray:none;stroke-opacity:1"
       id="path17046-9"
       inkscape:flatsided="false"
       sodipodi:sides="5"
       sodipodi:cx="105.23622"
       sodipodi:cy="199.67899"
       sodipodi:r1="21.332445"
       sodipodi:r2="10.666223"
       sodipodi:arg1="0.32175055"
       sodipodi:arg2="0.95006909"
       inkscape:rounded="0"
       inkscape:randomized="0"
       transform="matrix(0.15462164,0,0,0.14240959,74.939678,-47.319397)"
       inkscape:transform-center-x="0.0077380839"
       inkscape:transform-center-y="0.28331129"
       d="m 125.47396,206.4249 -14.03398,1.93059 -6.3657,12.65533 -6.172832,-12.75052 -14.003045,-2.14343 10.218951,-9.81084 -2.288657,-13.98004 12.488493,6.68708 12.58858,-6.49671 -2.50064,13.94368 z" />
    <path
       sodipodi:type="star"
       style="opacity:1;fill:#ffffff;fill-opacity:1;stroke:#ffffff;stroke-width:7.04882;stroke-miterlimit:4;stroke-dasharray:none;stroke-opacity:1"
       id="path17046-8"
       inkscape:flatsided="false"
       sodipodi:sides="5"
       sodipodi:cx="105.23622"
       sodipodi:cy="199.67899"
       sodipodi:r1="21.332445"
       sodipodi:r2="10.666223"
       sodipodi:arg1="0.32175055"
       sodipodi:arg2="0.95006909"
       inkscape:rounded="0"
       inkscape:randomized="0"
       transform="matrix(0.0983803,0,0,0.10460835,-2.4540493,26.762751)"
       inkscape:transform-center-x="0.0049232491"
       inkscape:transform-center-y="0.20811043"
       d="m 125.47396,206.4249 -14.03398,1.93059 -6.3657,12.65533 -6.172832,-12.75052 -14.003045,-2.14343 10.218951,-9.81084 -2.288657,-13.98004 12.488493,6.68708 12.58858,-6.49671 -2.50064,13.94368 z" />
    <path
       sodipodi:type="star"
       style="opacity:1;fill:#ffffff;fill-opacity:1;stroke:#ffffff;stroke-width:7.04882;stroke-miterlimit:4;stroke-dasharray:none;stroke-opacity:1"
       id="path17046-44"
       inkscape:flatsided="false"
       sodipodi:sides="5"
       sodipodi:cx="105.23622"
       sodipodi:cy="199.67899"
       sodipodi:r1="21.332445"
       sodipodi:r2="10.666223"
       sodipodi:arg1="0.32175055"
       sodipodi:arg2="0.95006909"
       inkscape:rounded="0"
       inkscape:randomized="0"
       transform="matrix(0.0983803,0,0,0.10460835,46.963952,22.712096)"
       inkscape:transform-center-x="0.0049224334"
       inkscape:transform-center-y="0.20811113"
       d="m 125.47396,206.4249 -14.03398,1.93059 -6.3657,12.65533 -6.172832,-12.75052 -14.003045,-2.14343 10.218951,-9.81084 -2.288657,-13.98004 12.488493,6.68708 12.58858,-6.49671 -2.50064,13.94368 z" />
    <path
       sodipodi:type="star"
       style="opacity:1;fill:#ffffff;fill-opacity:1;stroke:#ffffff;stroke-width:7.04882;stroke-miterlimit:4;stroke-dasharray:none;stroke-opacity:1"
       id="path17046-47"
       inkscape:flatsided="false"
       sodipodi:sides="5"
       sodipodi:cx="105.23622"
       sodipodi:cy="199.67899"
       sodipodi:r1="21.332445"
       sodipodi:r2="10.666223"
       sodipodi:arg1="0.32175055"
       sodipodi:arg2="0.95006909"
       inkscape:rounded="0"
       inkscape:randomized="0"
       transform="matrix(0.05655375,0,0,0.04703491,63.109648,-0.06498068)"
       inkscape:transform-center-x="0.0028297677"
       inkscape:transform-center-y="0.093570978"
       d="m 125.47396,206.4249 -14.03398,1.93059 -6.3657,12.65533 -6.172832,-12.75052 -14.003045,-2.14343 10.218951,-9.81084 -2.288657,-13.98004 12.488493,6.68708 12.58858,-6.49671 -2.50064,13.94368 z" />
    <path
       sodipodi:type="star"
       style="opacity:1;fill:#ffffff;fill-opacity:1;stroke:#ffffff;stroke-width:7.04882;stroke-miterlimit:4;stroke-dasharray:none;stroke-opacity:1"
       id="path17046-4"
       inkscape:flatsided="false"
       sodipodi:sides="5"
       sodipodi:cx="105.23622"
       sodipodi:cy="199.67899"
       sodipodi:r1="21.332445"
       sodipodi:r2="10.666223"
       sodipodi:arg1="0.32175055"
       sodipodi:arg2="0.95006909"
       inkscape:rounded="0"
       inkscape:randomized="0"
       transform="matrix(0.0983803,0,0,0.10460835,20.499666,17.851307)"
       inkscape:transform-center-x="0.0049230443"
       inkscape:transform-center-y="0.20810943"
       d="m 125.47396,206.4249 -14.03398,1.93059 -6.3657,12.65533 -6.172832,-12.75052 -14.003045,-2.14343 10.218951,-9.81084 -2.288657,-13.98004 12.488493,6.68708 12.58858,-6.49671 -2.50064,13.94368 z" />
    <path
       style="opacity:1;fill:none;fill-opacity:1;stroke:#ffffff;stroke-width:1.85237;stroke-linecap:butt;stroke-linejoin:miter;stroke-miterlimit:4;stroke-dasharray:none;stroke-opacity:1"
       d="m 117.74388,-3.3539662 c 0,0 -49.91617,17.5075702 -49.91617,37.0046472 0,19.497034 167.12435,-44.962638 167.12435,-44.962638"
       id="path13628-3" />
    <path
       style="opacity:1;fill:none;fill-opacity:1;stroke:#ffffff;stroke-width:1.37833;stroke-linecap:butt;stroke-linejoin:miter;stroke-miterlimit:4;stroke-dasharray:none;stroke-opacity:1"
       d="m 117.5301,5.2936591 c 0,0 -42.666896,11.3404719 -42.666896,23.9696379 0,12.62916 142.853126,-29.12439948 142.853126,-29.12439948"
       id="path13628" />
    <ellipse
       style="opacity:0.226837;fill:#ffffff;fill-opacity:1;stroke:#fff3f3;stroke-width:0.88894"
       id="path13117"
       cx="165.19286"
       cy="-2.1642292"
       rx="46.820755"
       ry="44.93045"
       transform="scale(1,-1)" />
    <path
       sodipodi:type="star"
       style="opacity:1;fill:#ffffff;fill-opacity:1;stroke:#ffffff;stroke-width:7.04882;stroke-miterlimit:4;stroke-dasharray:none;stroke-opacity:1"
       id="path17046"
       inkscape:flatsided="false"
       sodipodi:sides="5"
       sodipodi:cx="105.23622"
       sodipodi:cy="199.67899"
       sodipodi:r1="21.332445"
       sodipodi:r2="10.666223"
       sodipodi:arg1="0.32175055"
       sodipodi:arg2="0.95006909"
       inkscape:rounded="0"
       inkscape:randomized="0"
       d="m 125.47396,206.4249 -14.03398,1.93059 -6.3657,12.65533 -6.172832,-12.75052 -14.003045,-2.14343 10.218951,-9.81084 -2.288657,-13.98004 12.488493,6.68708 12.58858,-6.49671 -2.50064,13.94368 z"
       transform="matrix(0.0983803,0,0,0.10460835,14.950015,-0.36989418)"
       inkscape:transform-center-x="0.0049229059"
       inkscape:transform-center-y="0.20810992" />
    <path
       style="opacity:0.182692;fill:#512c5a;fill-opacity:1;stroke:#000000;stroke-width:0.221564px;stroke-linecap:butt;stroke-linejoin:miter;stroke-opacity:1"
       d="m -11.202174,72.894442 c 0,0 258.468974,-7.260273 208.313684,-95.25483 -50.1553,-87.994542 61.23253,-1.452058 61.23253,-1.452058 l 3.077,129.813756 -145.54265,1.45204 -139.696313,-2.90411 z"
       id="path18304-0" />
    <path
       sodipodi:type="star"
       style="opacity:1;fill:#ffffff;fill-opacity:1;stroke:#ffffff;stroke-width:7.04882;stroke-miterlimit:4;stroke-dasharray:none;stroke-opacity:1"
       id="path17046-96"
       inkscape:flatsided="false"
       sodipodi:sides="5"
       sodipodi:cx="105.23622"
       sodipodi:cy="199.67899"
       sodipodi:r1="21.332445"
       sodipodi:r2="10.666223"
       sodipodi:arg1="0.32175055"
       sodipodi:arg2="0.95006909"
       inkscape:rounded="0"
       inkscape:randomized="0"
       transform="matrix(0.17795685,0,0,0.17372369,-13.793398,29.245711)"
       inkscape:transform-center-x="0.0089051294"
       inkscape:transform-center-y="0.34561001"
       d="m 125.47396,206.4249 -14.03398,1.93059 -6.3657,12.65533 -6.172832,-12.75052 -14.003045,-2.14343 10.218951,-9.81084 -2.288657,-13.98004 12.488493,6.68708 12.58858,-6.49671 -2.50064,13.94368 z" />
    <path
       sodipodi:type="star"
       style="opacity:1;fill:#ffffff;fill-opacity:1;stroke:#ffffff;stroke-width:7.04882;stroke-miterlimit:4;stroke-dasharray:none;stroke-opacity:1"
       id="path17046-82"
       inkscape:flatsided="false"
       sodipodi:sides="5"
       sodipodi:cx="105.23622"
       sodipodi:cy="199.67899"
       sodipodi:r1="21.332445"
       sodipodi:r2="10.666223"
       sodipodi:arg1="0.32175055"
       sodipodi:arg2="0.95006909"
       inkscape:rounded="0"
       inkscape:randomized="0"
       transform="matrix(0.0983803,0,0,0.10460835,26.170581,37.564498)"
       inkscape:transform-center-x="0.0049231539"
       inkscape:transform-center-y="0.2081099"
       d="m 125.47396,206.4249 -14.03398,1.93059 -6.3657,12.65533 -6.172832,-12.75052 -14.003045,-2.14343 10.218951,-9.81084 -2.288657,-13.98004 12.488493,6.68708 12.58858,-6.49671 -2.50064,13.94368 z" />
    <path
       sodipodi:type="star"
       style="opacity:1;fill:#ffffff;fill-opacity:1;stroke:#ffffff;stroke-width:7.04882;stroke-miterlimit:4;stroke-dasharray:none;stroke-opacity:1"
       id="path17046-3"
       inkscape:flatsided="false"
       sodipodi:sides="5"
       sodipodi:cx="105.23622"
       sodipodi:cy="199.67899"
       sodipodi:r1="21.332445"
       sodipodi:r2="10.666223"
       sodipodi:arg1="0.32175055"
       sodipodi:arg2="0.95006909"
       inkscape:rounded="0"
       inkscape:randomized="0"
       transform="matrix(0.0983803,0,0,0.10460835,112.48573,22.591974)"
       inkscape:transform-center-x="0.0049250171"
       inkscape:transform-center-y="0.20811005"
       d="m 125.47396,206.4249 -14.03398,1.93059 -6.3657,12.65533 -6.172832,-12.75052 -14.003045,-2.14343 10.218951,-9.81084 -2.288657,-13.98004 12.488493,6.68708 12.58858,-6.49671 -2.50064,13.94368 z" />
    <path
       sodipodi:type="star"
       style="opacity:1;fill:#ffffff;fill-opacity:1;stroke:#ffffff;stroke-width:7.04882;stroke-miterlimit:4;stroke-dasharray:none;stroke-opacity:1"
       id="path17046-59"
       inkscape:flatsided="false"
       sodipodi:sides="5"
       sodipodi:cx="105.23622"
       sodipodi:cy="199.67899"
       sodipodi:r1="21.332445"
       sodipodi:r2="10.666223"
       sodipodi:arg1="0.32175055"
       sodipodi:arg2="0.95006909"
       inkscape:rounded="0"
       inkscape:randomized="0"
       transform="matrix(0.21289286,0,0,0.24285152,172.90527,5.3633157)"
       inkscape:transform-center-x="0.010658017"
       inkscape:transform-center-y="0.48313295"
       d="m 125.47396,206.4249 -14.03398,1.93059 -6.3657,12.65533 -6.172832,-12.75052 -14.003045,-2.14343 10.218951,-9.81084 -2.288657,-13.98004 12.488493,6.68708 12.58858,-6.49671 -2.50064,13.94368 z" />
  </g>
</svg>
